{
    "asset" : {
        "generator" : "Khronos glTF Blender I/O v3.3.27",
        "version" : "2.0"
    },
    "extensionsUsed" : [
        "KHR_materials_specular",
        "KHR_materials_ior",
        "KHR_texture_transform"
    ],
    "extensionsRequired" : [
        "KHR_texture_transform"
    ],
    "scene" : 0,
    "scenes" : [
        {
            "name" : "Scene",
            "nodes" : [
                0
            ]
        }
    ],
    "nodes" : [
        {
            "mesh" : 0,
            "name" : "Cap_Cone_Armored_Hat"
        }
    ],
    "animations" : [
        {
            "channels" : [
                {
                    "sampler" : 0,
                    "target" : {
                        "node" : 0,
                        "path" : "translation"
                    }
                },
                {
                    "sampler" : 1,
                    "target" : {
                        "node" : 0,
                        "path" : "rotation"
                    }
                },
                {
                    "sampler" : 2,
                    "target" : {
                        "node" : 0,
                        "path" : "scale"
                    }
                }
            ],
            "name" : "Cap_Cone_Armored_Hat",
            "samplers" : [
                {
                    "input" : 12,
                    "interpolation" : "LINEAR",
                    "output" : 13
                },
                {
                    "input" : 12,
                    "interpolation" : "LINEAR",
                    "output" : 14
                },
                {
                    "input" : 12,
                    "interpolation" : "LINEAR",
                    "output" : 15
                }
            ]
        }
    ],
    "materials" : [
        {
            "doubleSided" : true,
            "extensions" : {
                "KHR_materials_specular" : {
                    "specularColorFactor" : [
                        1.3595783411134539,
                        1.3595783411134539,
                        1.3595783411134539
                    ]
                },
                "KHR_materials_ior" : {
                    "ior" : 1.4500000476837158
                }
            },
            "name" : "MAT_Outfit_Metal_A",
            "normalTexture" : {
                "index" : 0,
                "texCoord" : 1
            },
            "pbrMetallicRoughness" : {
                "baseColorTexture" : {
                    "index" : 1
                },
                "metallicRoughnessTexture" : {
                    "extensions" : {
                        "KHR_texture_transform" : {
                            "offset" : [
                                0,
                                -2
                            ],
                            "scale" : [
                                3,
                                3
                            ]
                        }
                    },
                    "index" : 2,
                    "texCoord" : 1
                },
                "roughnessFactor" : 0.5
            }
        },
        {
            "doubleSided" : true,
            "extensions" : {
                "KHR_materials_specular" : {
                    "specularColorFactor" : [
                        0.743025383973719,
                        0.743025383973719,
                        0.743025383973719
                    ]
                },
                "KHR_materials_ior" : {
                    "ior" : 1.4500000476837158
                }
            },
            "name" : "MAT_Outfit_W",
            "normalTexture" : {
                "index" : 3,
                "scale" : 3,
                "texCoord" : 1
            },
            "pbrMetallicRoughness" : {
                "metallicFactor" : 0,
                "roughnessFactor" : 0.4300000071525574
            }
        }
    ],
    "meshes" : [
        {
            "name" : "Cylinder.035",
            "primitives" : [
                {
                    "attributes" : {
                        "POSITION" : 0,
                        "NORMAL" : 1,
                        "TEXCOORD_0" : 2,
                        "TEXCOORD_1" : 3,
                        "COLOR_0" : 4
                    },
                    "indices" : 5,
                    "material" : 0
                },
                {
                    "attributes" : {
                        "POSITION" : 6,
                        "NORMAL" : 7,
                        "TEXCOORD_0" : 8,
                        "TEXCOORD_1" : 9,
                        "COLOR_0" : 10
                    },
                    "indices" : 11,
                    "material" : 1
                }
            ]
        }
    ],
    "textures" : [
        {
            "sampler" : 0,
            "source" : 0
        },
        {
            "sampler" : 0,
            "source" : 1
        },
        {
            "sampler" : 0,
            "source" : 2
        },
        {
            "sampler" : 0,
            "source" : 3
        }
    ],
    "images" : [
        {
            "mimeType" : "image/png",
            "name" : "TEX_Trim_A_N",
            "uri" : "TEX_Trim_A_N.png"
        },
        {
            "mimeType" : "image/png",
            "name" : "TEX_Outfit_AA",
            "uri" : "TEX_Outfit_AA.png"
        },
        {
            "mimeType" : "image/png",
            "name" : "TEX_MP_Roughness_A",
            "uri" : "TEX_MP_Roughness_A.png"
        },
        {
            "mimeType" : "image/jpeg",
            "name" : "TEX_MP_Detail_Wood_N_A",
            "uri" : "TEX_MP_Detail_Wood_N_A.jpg"
        }
    ],
    "accessors" : [
        {
            "bufferView" : 0,
            "componentType" : 5126,
            "count" : 709,
            "max" : [
                0.6495331525802612,
                0.6731279492378235,
                0.6572362184524536
            ],
            "min" : [
                -0.6567655801773071,
                -0.017493803054094315,
                -0.6458362340927124
            ],
            "type" : "VEC3"
        },
        {
            "bufferView" : 1,
            "componentType" : 5126,
            "count" : 709,
            "type" : "VEC3"
        },
        {
            "bufferView" : 2,
            "componentType" : 5126,
            "count" : 709,
            "type" : "VEC2"
        },
        {
            "bufferView" : 3,
            "componentType" : 5126,
            "count" : 709,
            "type" : "VEC2"
        },
        {
            "bufferView" : 4,
            "componentType" : 5123,
            "count" : 709,
            "normalized" : true,
            "type" : "VEC4"
        },
        {
            "bufferView" : 5,
            "componentType" : 5123,
            "count" : 1428,
            "type" : "SCALAR"
        },
        {
            "bufferView" : 6,
            "componentType" : 5126,
            "count" : 770,
            "max" : [
                0.589397668838501,
                0.44199803471565247,
                0.6032460927963257
            ],
            "min" : [
                -0.6007866859436035,
                0.004421990364789963,
                -0.5823978781700134
            ],
            "type" : "VEC3"
        },
        {
            "bufferView" : 7,
            "componentType" : 5126,
            "count" : 770,
            "type" : "VEC3"
        },
        {
            "bufferView" : 8,
            "componentType" : 5126,
            "count" : 770,
            "type" : "VEC2"
        },
        {
            "bufferView" : 9,
            "componentType" : 5126,
            "count" : 770,
            "type" : "VEC2"
        },
        {
            "bufferView" : 10,
            "componentType" : 5123,
            "count" : 770,
            "normalized" : true,
            "type" : "VEC4"
        },
        {
            "bufferView" : 11,
            "componentType" : 5123,
            "count" : 1638,
            "type" : "SCALAR"
        },
        {
            "bufferView" : 12,
            "componentType" : 5126,
            "count" : 301,
            "max" : [
                12.5
            ],
            "min" : [
                0
            ],
            "type" : "SCALAR"
        },
        {
            "bufferView" : 13,
            "componentType" : 5126,
            "count" : 301,
            "type" : "VEC3"
        },
        {
            "bufferView" : 14,
            "componentType" : 5126,
            "count" : 301,
            "type" : "VEC4"
        },
        {
            "bufferView" : 15,
            "componentType" : 5126,
            "count" : 301,
            "type" : "VEC3"
        }
    ],
    "bufferViews" : [
        {
            "buffer" : 0,
            "byteLength" : 8508,
            "byteOffset" : 0,
            "target" : 34962
        },
        {
            "buffer" : 0,
            "byteLength" : 8508,
            "byteOffset" : 8508,
            "target" : 34962
        },
        {
            "buffer" : 0,
            "byteLength" : 5672,
            "byteOffset" : 17016,
            "target" : 34962
        },
        {
            "buffer" : 0,
            "byteLength" : 5672,
            "byteOffset" : 22688,
            "target" : 34962
        },
        {
            "buffer" : 0,
            "byteLength" : 5672,
            "byteOffset" : 28360,
            "target" : 34962
        },
        {
            "buffer" : 0,
            "byteLength" : 2856,
            "byteOffset" : 34032,
            "target" : 34963
        },
        {
            "buffer" : 0,
            "byteLength" : 9240,
            "byteOffset" : 36888,
            "target" : 34962
        },
        {
            "buffer" : 0,
            "byteLength" : 9240,
            "byteOffset" : 46128,
            "target" : 34962
        },
        {
            "buffer" : 0,
            "byteLength" : 6160,
            "byteOffset" : 55368,
            "target" : 34962
        },
        {
            "buffer" : 0,
            "byteLength" : 6160,
            "byteOffset" : 61528,
            "target" : 34962
        },
        {
            "buffer" : 0,
            "byteLength" : 6160,
            "byteOffset" : 67688,
            "target" : 34962
        },
        {
            "buffer" : 0,
            "byteLength" : 3276,
            "byteOffset" : 73848,
            "target" : 34963
        },
        {
            "buffer" : 0,
            "byteLength" : 1204,
            "byteOffset" : 77124
        },
        {
            "buffer" : 0,
            "byteLength" : 3612,
            "byteOffset" : 78328
        },
        {
            "buffer" : 0,
            "byteLength" : 4816,
            "byteOffset" : 81940
        },
        {
            "buffer" : 0,
            "byteLength" : 3612,
            "byteOffset" : 86756
        }
    ],
    "samplers" : [
        {
            "magFilter" : 9729,
            "minFilter" : 9987
        }
    ],
    "buffers" : [
        {
            "byteLength" : 90368,
            "uri" : "Cap_Cone_Armored_Hat.bin"
        }
    ]
}
