{
    "asset" : {
        "generator" : "Khronos glTF Blender I/O v3.3.27",
        "version" : "2.0"
    },
    "extensionsUsed" : [
        "KHR_materials_specular",
        "KHR_materials_ior",
        "KHR_texture_transform"
    ],
    "extensionsRequired" : [
        "KHR_texture_transform"
    ],
    "scene" : 0,
    "scenes" : [
        {
            "name" : "Scene",
            "nodes" : [
                0
            ]
        }
    ],
    "nodes" : [
        {
            "mesh" : 0,
            "name" : "FireArms_Assault_Rifle_M"
        }
    ],
    "animations" : [
        {
            "channels" : [
                {
                    "sampler" : 0,
                    "target" : {
                        "node" : 0,
                        "path" : "translation"
                    }
                },
                {
                    "sampler" : 1,
                    "target" : {
                        "node" : 0,
                        "path" : "rotation"
                    }
                },
                {
                    "sampler" : 2,
                    "target" : {
                        "node" : 0,
                        "path" : "scale"
                    }
                }
            ],
            "name" : "FireArms_Assault_Rifle_M",
            "samplers" : [
                {
                    "input" : 12,
                    "interpolation" : "LINEAR",
                    "output" : 13
                },
                {
                    "input" : 12,
                    "interpolation" : "LINEAR",
                    "output" : 14
                },
                {
                    "input" : 12,
                    "interpolation" : "LINEAR",
                    "output" : 15
                }
            ]
        }
    ],
    "materials" : [
        {
            "doubleSided" : true,
            "extensions" : {
                "KHR_materials_specular" : {
                    "specularColorFactor" : [
                        1.3595783411134539,
                        1.3595783411134539,
                        1.3595783411134539
                    ]
                },
                "KHR_materials_ior" : {
                    "ior" : 1.4500000476837158
                }
            },
            "name" : "MAT_Outfit_Metal_A",
            "normalTexture" : {
                "index" : 0,
                "texCoord" : 1
            },
            "pbrMetallicRoughness" : {
                "baseColorTexture" : {
                    "index" : 1
                },
                "metallicRoughnessTexture" : {
                    "extensions" : {
                        "KHR_texture_transform" : {
                            "offset" : [
                                0,
                                -2
                            ],
                            "scale" : [
                                3,
                                3
                            ]
                        }
                    },
                    "index" : 2,
                    "texCoord" : 1
                },
                "roughnessFactor" : 0.5
            }
        },
        {
            "doubleSided" : true,
            "extensions" : {
                "KHR_materials_specular" : {
                    "specularColorFactor" : [
                        0.743025383973719,
                        0.743025383973719,
                        0.743025383973719
                    ]
                },
                "KHR_materials_ior" : {
                    "ior" : 1.4500000476837158
                }
            },
            "name" : "MAT_Outfit_Wood_A",
            "normalTexture" : {
                "index" : 3,
                "scale" : 3,
                "texCoord" : 1
            },
            "pbrMetallicRoughness" : {
                "baseColorTexture" : {
                    "index" : 4
                },
                "metallicFactor" : 0,
                "roughnessFactor" : 0.4300000071525574
            }
        }
    ],
    "meshes" : [
        {
            "name" : "Cube.012",
            "primitives" : [
                {
                    "attributes" : {
                        "POSITION" : 0,
                        "NORMAL" : 1,
                        "TEXCOORD_0" : 2,
                        "TEXCOORD_1" : 3,
                        "COLOR_0" : 4
                    },
                    "indices" : 5,
                    "material" : 0
                },
                {
                    "attributes" : {
                        "POSITION" : 6,
                        "NORMAL" : 7,
                        "TEXCOORD_0" : 8,
                        "TEXCOORD_1" : 9,
                        "COLOR_0" : 10
                    },
                    "indices" : 11,
                    "material" : 1
                }
            ]
        }
    ],
    "textures" : [
        {
            "sampler" : 0,
            "source" : 0
        },
        {
            "sampler" : 0,
            "source" : 1
        },
        {
            "sampler" : 0,
            "source" : 2
        },
        {
            "sampler" : 0,
            "source" : 3
        },
        {
            "sampler" : 0,
            "source" : 1
        }
    ],
    "images" : [
        {
            "mimeType" : "image/png",
            "name" : "TEX_Trim_A_N",
            "uri" : "TEX_Trim_A_N.png"
        },
        {
            "mimeType" : "image/png",
            "name" : "TEX_Outfit_AA",
            "uri" : "TEX_Outfit_AA.png"
        },
        {
            "mimeType" : "image/png",
            "name" : "TEX_MP_Roughness_A",
            "uri" : "TEX_MP_Roughness_A.png"
        },
        {
            "mimeType" : "image/jpeg",
            "name" : "TEX_MP_Detail_Wood_N_A",
            "uri" : "TEX_MP_Detail_Wood_N_A.jpg"
        }
    ],
    "accessors" : [
        {
            "bufferView" : 0,
            "componentType" : 5126,
            "count" : 3001,
            "max" : [
                0.10986974090337753,
                0.25269776582717896,
                0.728764533996582
            ],
            "min" : [
                -0.1566445678472519,
                -0.3172203302383423,
                -0.1327425241470337
            ],
            "type" : "VEC3"
        },
        {
            "bufferView" : 1,
            "componentType" : 5126,
            "count" : 3001,
            "type" : "VEC3"
        },
        {
            "bufferView" : 2,
            "componentType" : 5126,
            "count" : 3001,
            "type" : "VEC2"
        },
        {
            "bufferView" : 3,
            "componentType" : 5126,
            "count" : 3001,
            "type" : "VEC2"
        },
        {
            "bufferView" : 4,
            "componentType" : 5123,
            "count" : 3001,
            "normalized" : true,
            "type" : "VEC4"
        },
        {
            "bufferView" : 5,
            "componentType" : 5123,
            "count" : 6393,
            "type" : "SCALAR"
        },
        {
            "bufferView" : 6,
            "componentType" : 5126,
            "count" : 639,
            "max" : [
                0.09665205329656601,
                0.20364147424697876,
                0.5880518555641174
            ],
            "min" : [
                -0.07876771688461304,
                -0.27189892530441284,
                -0.14547136425971985
            ],
            "type" : "VEC3"
        },
        {
            "bufferView" : 7,
            "componentType" : 5126,
            "count" : 639,
            "type" : "VEC3"
        },
        {
            "bufferView" : 8,
            "componentType" : 5126,
            "count" : 639,
            "type" : "VEC2"
        },
        {
            "bufferView" : 9,
            "componentType" : 5126,
            "count" : 639,
            "type" : "VEC2"
        },
        {
            "bufferView" : 10,
            "componentType" : 5123,
            "count" : 639,
            "normalized" : true,
            "type" : "VEC4"
        },
        {
            "bufferView" : 11,
            "componentType" : 5123,
            "count" : 1392,
            "type" : "SCALAR"
        },
        {
            "bufferView" : 12,
            "componentType" : 5126,
            "count" : 301,
            "max" : [
                12.5
            ],
            "min" : [
                0
            ],
            "type" : "SCALAR"
        },
        {
            "bufferView" : 13,
            "componentType" : 5126,
            "count" : 301,
            "type" : "VEC3"
        },
        {
            "bufferView" : 14,
            "componentType" : 5126,
            "count" : 301,
            "type" : "VEC4"
        },
        {
            "bufferView" : 15,
            "componentType" : 5126,
            "count" : 301,
            "type" : "VEC3"
        }
    ],
    "bufferViews" : [
        {
            "buffer" : 0,
            "byteLength" : 36012,
            "byteOffset" : 0,
            "target" : 34962
        },
        {
            "buffer" : 0,
            "byteLength" : 36012,
            "byteOffset" : 36012,
            "target" : 34962
        },
        {
            "buffer" : 0,
            "byteLength" : 24008,
            "byteOffset" : 72024,
            "target" : 34962
        },
        {
            "buffer" : 0,
            "byteLength" : 24008,
            "byteOffset" : 96032,
            "target" : 34962
        },
        {
            "buffer" : 0,
            "byteLength" : 24008,
            "byteOffset" : 120040,
            "target" : 34962
        },
        {
            "buffer" : 0,
            "byteLength" : 12786,
            "byteOffset" : 144048,
            "target" : 34963
        },
        {
            "buffer" : 0,
            "byteLength" : 7668,
            "byteOffset" : 156836,
            "target" : 34962
        },
        {
            "buffer" : 0,
            "byteLength" : 7668,
            "byteOffset" : 164504,
            "target" : 34962
        },
        {
            "buffer" : 0,
            "byteLength" : 5112,
            "byteOffset" : 172172,
            "target" : 34962
        },
        {
            "buffer" : 0,
            "byteLength" : 5112,
            "byteOffset" : 177284,
            "target" : 34962
        },
        {
            "buffer" : 0,
            "byteLength" : 5112,
            "byteOffset" : 182396,
            "target" : 34962
        },
        {
            "buffer" : 0,
            "byteLength" : 2784,
            "byteOffset" : 187508,
            "target" : 34963
        },
        {
            "buffer" : 0,
            "byteLength" : 1204,
            "byteOffset" : 190292
        },
        {
            "buffer" : 0,
            "byteLength" : 3612,
            "byteOffset" : 191496
        },
        {
            "buffer" : 0,
            "byteLength" : 4816,
            "byteOffset" : 195108
        },
        {
            "buffer" : 0,
            "byteLength" : 3612,
            "byteOffset" : 199924
        }
    ],
    "samplers" : [
        {
            "magFilter" : 9729,
            "minFilter" : 9987
        }
    ],
    "buffers" : [
        {
            "byteLength" : 203536,
            "uri" : "FireArms_Assault_Rifle_M.bin"
        }
    ]
}
